<?xml version="1.0" encoding="UTF-8"?>
<svg width="14px" height="14px" viewBox="0 0 14 14" version="1.1" xmlns="http://www.w3.org/2000/svg" xmlns:xlink="http://www.w3.org/1999/xlink">
    <!-- Generator: sketchtool 52 (66869) - http://www.bohemiancoding.com/sketch -->
    <title>C49F8769-6C70-4419-B7E3-851E056596AC</title>
    <desc>Created with sketchtool.</desc>
    <g id="Page-1" stroke="none" stroke-width="1" fill="none" fill-rule="evenodd">
        <g id="4.3-Games_Select-a-tag" transform="translate(-776.000000, -145.000000)" fill="#FFFFFF">
            <g id="Filters" transform="translate(120.000000, 104.000000)">
                <g id="Popup" transform="translate(0.000000, 41.000000)">
                    <path d="M664.238144,7.00014593 L669.74347,1.49459026 C670.08551,1.15282787 670.08551,0.598303071 669.74347,0.256540683 C669.40143,-0.0855135608 668.847512,-0.0855135608 668.505472,0.256540683 L663.000146,5.76209635 L657.494528,0.256540683 C657.152488,-0.0855135608 656.59857,-0.0855135608 656.25653,0.256540683 C655.91449,0.598303071 655.91449,1.15282787 656.25653,1.49459026 L661.762148,7.00014593 L656.25653,12.5057016 C655.91449,12.847464 655.91449,13.4019888 656.25653,13.7437512 C656.42755,13.9144864 656.651685,14 656.875529,14 C657.099373,14 657.323508,13.9144864 657.494528,13.7434593 L663.000146,8.23790365 L668.505472,13.7434593 C668.676492,13.9144864 668.900627,14 669.124471,14 C669.348315,14 669.57245,13.9144864 669.74347,13.7434593 C670.08551,13.4016969 670.08551,12.8471721 669.74347,12.5054097 L664.238144,7.00014593 Z" id="Path"></path>
                </g>
            </g>
        </g>
    </g>
</svg>