<svg width="14" height="9" xmlns="http://www.w3.org/2000/svg"><path d="M13.85666.8414246l-.701179-.7011299C13.062049.0466667 12.954421 0 12.832744 0c-.121383 0-.228962.0466667-.322393.1402947L6.99833 5.6520211 1.486554.1404421C1.393074.046814 1.285495.0001474 1.163965.0001474c-.121579 0-.229158.0466666-.32259.1402947l-.70108.701179C.046667.9350526 0 1.0426316 0 1.1642105c0 .1214807.046814.2290597.140295.3224913L6.67574 8.0222947c.093432.0934807.20106.1401965.32259.1401965s.228961-.0467158.322344-.1401965l6.535986-6.5355929c.093431-.0934807.139852-.2010597.139852-.3224913 0-.1215789-.046421-.2291579-.139852-.3227859z" fill="#BFC3CE" fill-rule="evenodd"/></svg>