<svg width="32" height="32" xmlns="http://www.w3.org/2000/svg"><g fill="#FFF" fill-rule="evenodd"><path d="M15.9804481 31.9608961c8.8114053 0 15.980448-7.1690427 15.980448-15.980448C31.9608961 7.16904277 24.7918534 0 15.9804481 0 7.16904277 0 0 7.16904277 0 15.9804481c0 8.8114053 7.16904277 15.980448 15.9804481 15.980448zm0-30.36415476c7.9315682 0 14.3837067 6.4521385 14.3837067 14.38370676 0 7.9315682-6.4521385 14.3837067-14.3837067 14.3837067-7.93156826 0-14.38370676-6.4521385-14.38370676-14.3837067 0-7.93156826 6.4521385-14.38370676 14.38370676-14.38370676z" fill-rule="nonzero"/><path d="M19.0044812 21.0378819c-.1564155.1564155-.3584521.2346232-.5670061.2346232-.208554 0-.4105906-.0782077-.5670061-.2346232-.312831-.312831-.312831-.814664 0-1.1274949l3.1283096-3.1283096H9.0460291c-.4431772 0-.8016294-.3584521-.8016294-.8016293s.3584522-.8016294.8016294-.8016294h11.9527495l-3.1283096-3.1283095c-.312831-.312831-.312831-.814664 0-1.1274949.3128309-.312831.8146639-.312831 1.1274949 0l4.4904277 4.4904277c.31283095.3128309.31283095.8146639 0 1.1274949l-4.4839104 4.496945z"/></g></svg>