<svg width="15" height="18" xmlns="http://www.w3.org/2000/svg"><g fill="#FFF" fill-rule="nonzero"><path d="M7.22264151 0C3.24528302 0 .00754717 3.23773585.00754717 7.21509434c0 .45283019.04150943.90943396.12830189 1.35471698.00377358.0264151.01886792.10566038.0490566.24150943.10943396.48679246.27169811.96603774.48301887 1.42264155.77735849 1.8301886 2.48679245 4.6415094 6.23773585 7.6528302C7 17.9622642 7.11320755 18 7.22641509 18c.11320755 0 .2264151-.0377358.32075472-.1132075 3.74716979-3.0113208 5.46037739-5.8226416 6.23773589-7.6528302.2113207-.45660381.3735849-.93207551.4830188-1.42264155.0301887-.13584905.045283-.21509433.0490566-.24150943.0830189-.44528302.1283019-.90188679.1283019-1.35471698C14.4377358 3.23773585 11.2 0 7.22264151 0zm6.08301889 8.39245283c0 .00754717-.0037736.01509434-.0037736.02264151-.0037736.01886792-.0150943.0754717-.0339623.16226415v.00754717c-.0943396.42264151-.2339622.83396226-.4188679 1.23018868-.0037736.00377358-.0037736.01132075-.0075472.01509434-.7056603 1.67169812-2.2528302 4.22264152-5.61886789 7.00377362-3.36603774-2.7811321-4.91320755-5.3320755-5.61886793-7.00377362C1.6 9.82641509 1.6 9.81886792 1.59622642 9.81509434c-.18113208-.39245283-.32075472-.80754717-.41886793-1.23018868v-.00754717c-.02264151-.08679245-.03018868-.14339623-.03396226-.16226415 0-.00754717-.00377359-.01509434-.00377359-.02641509C1.06415094 8 1.02641509 7.60754717 1.02641509 7.21132075c0-3.41509433 2.78113208-6.19622641 6.19622642-6.19622641 3.41509429 0 6.19622639 2.78113208 6.19622639 6.19622641 0 .4-.0377358.79622642-.1132075 1.18113208z"/><path d="M7.22264151 2.71320755c-2.5245283 0-4.58113208 2.05660377-4.58113208 4.58113207 0 2.5245283 2.05660378 4.58113208 4.58113208 4.58113208 2.5245283 0 4.58113209-2.05660378 4.58113209-4.58113208 0-2.5245283-2.05660379-4.58113207-4.58113209-4.58113207zm0 8.14339625c-1.96603774 0-3.56226415-1.60000003-3.56226415-3.56226418 0-1.96226415 1.6-3.56226415 3.56226415-3.56226415 1.96226415 0 3.56226419 1.6 3.56226419 3.56226415 0 1.96226415-1.59622645 3.56226418-3.56226419 3.56226418z"/></g></svg>