<svg width="18" height="18" xmlns="http://www.w3.org/2000/svg"><g fill="#4CB134" fill-rule="evenodd"><path d="M16.500375 1.6875H14.0625V.5625C14.0625.2514375 13.8110625 0 13.5 0s-.5625.2514375-.5625.5625v1.125h-3.375V.5625C9.5625.2514375 9.3105 0 9 0s-.5625.2514375-.5625.5625v1.125h-3.375V.5625C5.0625.2514375 4.8105 0 4.5 0s-.5625.2514375-.5625.5625v1.125H1.5001875C.671625 1.6875 0 2.3585625 0 3.187125v13.3126875C0 17.328375.671625 18 1.5001875 18H16.500375C17.3289375 18 18 17.328375 18 16.4998125V3.187125c0-.8285625-.6710625-1.499625-1.499625-1.499625zM16.875 16.4998125c0 .207-.1681875.3751875-.374625.3751875H1.5001875c-.207 0-.3751875-.1681875-.3751875-.3751875V3.187125c0-.2064375.1681875-.374625.3751875-.374625H3.9375v1.125c0 .3110625.252.5625.5625.5625s.5625-.2514375.5625-.5625v-1.125h3.375v1.125c0 .3110625.252.5625.5625.5625s.5625-.2514375.5625-.5625v-1.125h3.375v1.125c0 .3110625.2514375.5625.5625.5625s.5625-.2514375.5625-.5625v-1.125h2.437875c.2064375 0 .374625.1681875.374625.374625v13.3126875z" fill-rule="nonzero"/><path d="M3.9375 6.75h2.25v1.6875h-2.25zM3.9375 9.5625h2.25V11.25h-2.25zM3.9375 12.375h2.25v1.6875h-2.25zM7.875 12.375h2.25v1.6875h-2.25zM7.875 9.5625h2.25V11.25h-2.25zM7.875 6.75h2.25v1.6875h-2.25zM11.8125 12.375h2.25v1.6875h-2.25zM11.8125 9.5625h2.25V11.25h-2.25zM11.8125 6.75h2.25v1.6875h-2.25z"/></g></svg>