<svg width="32" height="32" xmlns="http://www.w3.org/2000/svg"><g fill="none" fill-rule="evenodd"><circle fill="#4CB134" fill-rule="nonzero" cx="16" cy="16" r="16"/><path d="M15.9804481 31.9608961c8.8114053 0 15.980448-7.1690427 15.980448-15.980448C31.9608961 7.16904277 24.7918534 0 15.9804481 0 7.16904277 0 0 7.16904277 0 15.9804481c0 8.8114053 7.16904277 15.980448 15.9804481 15.980448zm0-30.36415476c7.9315682 0 14.3837067 6.4521385 14.3837067 14.38370676 0 7.9315682-6.4521385 14.3837067-14.3837067 14.3837067-7.93156826 0-14.38370676-6.4521385-14.38370676-14.3837067 0-7.93156826 6.4521385-14.38370676 14.38370676-14.38370676z" fill="#FFF" fill-rule="nonzero"/><path d="M21.6637228 7.46277644c-.1203368-.17284031-.2823847-.29923768-.4857872-.37941899-.1295411-.0554528-.2653049-.08322781-.4072265-.08322781L11.0733082 7c-.1418568 0-.2774909.02777501-.4070644.08322781-.2035322.08011649-.3655153.20667591-.4857872.37941899C10.060217 7.63538988 10 7.8265416 10 8.03632883V23.9636712c0 .209852.060217.4009389.1804566.573844.1202719.1727107.282255.2992377.4857872.3793218.1294439.0554528.2652076.083163.4070644.083163.2900333 0 .545907-.1018309.7680423-.3052335l4.0806906-3.9235689 4.0806906 3.9236662c.215945.1970827.4719483.2958022.767945.2958022.1542697 0 .290001-.0245016.4072264-.0738614.2034026-.0800841.3654505-.2066111.4857873-.3795486.1202395-.1726783.1803269-.3637976.1803269-.5736172V8.03645847c.0000324-.20978724-.0601846-.40093896-.1802945-.57368203z" fill="#FFF"/></g></svg>