<svg width="70" height="70" xmlns="http://www.w3.org/2000/svg" xmlns:xlink="http://www.w3.org/1999/xlink"><defs><circle id="b" cx="20" cy="20" r="20"/><filter x="-57.5%" y="-55%" width="215%" height="215%" filterUnits="objectBoundingBox" id="a"><feOffset dy="1" in="SourceAlpha" result="shadowOffsetOuter1"/><feGaussianBlur stdDeviation="7.5" in="shadowOffsetOuter1" result="shadowBlurOuter1"/><feComposite in="shadowBlurOuter1" in2="SourceAlpha" operator="out" result="shadowBlurOuter1"/><feColorMatrix values="0 0 0 0 0 0 0 0 0 0.517645478 0 0 0 0 0.919088542 0 0 0 1 0" in="shadowBlurOuter1"/></filter></defs><g transform="translate(15 14)" fill-rule="nonzero" fill="none"><circle stroke="#FFF" fill="#303644" cx="20" cy="20" r="19.5"/><use fill="#000" filter="url(#a)" xlink:href="#b"/><circle stroke="#FFF" stroke-linejoin="square" fill="#303644" fill-rule="evenodd" cx="20" cy="20" r="19.5"/><path d="M25.9685412 23.4404816c-1.0446464 0-1.9760899.4915224-2.5771044 1.2548413l-6.019246-3.4751495c.1518747-.3774211.2362886-.7889828.2362886-1.2201539 0-.4311319-.084453-.8426936-.2362886-1.2201538l6.019246-3.4751495c.6010535.7632798 1.532458 1.2548413 2.5771044 1.2548413 1.808473 0 3.2797592-1.4713253 3.2797592-3.2797592C29.2483004 11.4713253 27.7770533 10 25.9685412 10s-3.2797592 1.4712862-3.2797592 3.2797202c0 .431171.084492.8428108.2364057 1.2203101l-6.0191679 3.4751494c-.6010535-.7633578-1.5325361-1.2549585-2.5772606-1.2549585-1.808473 0-3.2797592 1.4713253-3.2797592 3.2797593 0 1.8084339 1.4712862 3.2797592 3.2797592 3.2797592 1.0447245 0 1.9762071-.4916006 2.5772606-1.2549585l6.0191679 3.4751885c-.1519137.3774993-.2364057.7891-.2364057 1.2203101C22.688782 28.5287529 24.1600681 30 25.9685412 30c1.808473 0 3.2797592-1.4712862 3.2797592-3.2797202 0-1.8084339-1.4712471-3.2797982-3.2797592-3.2797982zm0-12.5104834c1.2956615 0 2.3498001 1.0540995 2.3498001 2.349722 0 1.2956615-1.0540995 2.3498001-2.3498001 2.3498001-1.2956616 0-2.3498001-1.0541386-2.3498001-2.3498001.000039-1.2956616 1.0541776-2.349722 2.3498001-2.349722zm-11.639782 11.4197824c-1.2956615 0-2.3498001-1.0541386-2.3498001-2.3498001 0-1.2956616 1.0540995-2.3498001 2.3498001-2.3498001 1.2956616 0 2.3498001 1.0541385 2.3498001 2.3498001 0 1.2956615-1.0541385 2.3498001-2.3498001 2.3498001zm11.639782 6.7201822c-1.2956616 0-2.3498001-1.0540995-2.3498001-2.349722 0-1.2956616 1.0540995-2.3498001 2.3498001-2.3498001 1.2956615 0 2.3498001 1.0541385 2.3498001 2.3498001 0 1.2956615-1.0541386 2.349722-2.3498001 2.349722z" fill="#FFF"/><path d="M25.9685412 23.4404816c-1.0446464 0-1.9760899.4915224-2.5771044 1.2548413l-6.019246-3.4751495c.1518747-.3774211.2362886-.7889828.2362886-1.2201539 0-.4311319-.084453-.8426936-.2362886-1.2201538l6.019246-3.4751495c.6010535.7632798 1.532458 1.2548413 2.5771044 1.2548413 1.808473 0 3.2797592-1.4713253 3.2797592-3.2797592C29.2483004 11.4713253 27.7770533 10 25.9685412 10s-3.2797592 1.4712862-3.2797592 3.2797202c0 .431171.084492.8428108.2364057 1.2203101l-6.0191679 3.4751494c-.6010535-.7633578-1.5325361-1.2549585-2.5772606-1.2549585-1.808473 0-3.2797592 1.4713253-3.2797592 3.2797593 0 1.8084339 1.4712862 3.2797592 3.2797592 3.2797592 1.0447245 0 1.9762071-.4916006 2.5772606-1.2549585l6.0191679 3.4751885c-.1519137.3774993-.2364057.7891-.2364057 1.2203101C22.688782 28.5287529 24.1600681 30 25.9685412 30c1.808473 0 3.2797592-1.4712862 3.2797592-3.2797202 0-1.8084339-1.4712471-3.2797982-3.2797592-3.2797982zm0-12.5104834c1.2956615 0 2.3498001 1.0540995 2.3498001 2.349722 0 1.2956615-1.0540995 2.3498001-2.3498001 2.3498001-1.2956616 0-2.3498001-1.0541386-2.3498001-2.3498001.000039-1.2956616 1.0541776-2.349722 2.3498001-2.349722zm-11.639782 11.4197824c-1.2956615 0-2.3498001-1.0541386-2.3498001-2.3498001 0-1.2956616 1.0540995-2.3498001 2.3498001-2.3498001 1.2956616 0 2.3498001 1.0541385 2.3498001 2.3498001 0 1.2956615-1.0541385 2.3498001-2.3498001 2.3498001zm11.639782 6.7201822c-1.2956616 0-2.3498001-1.0540995-2.3498001-2.349722 0-1.2956616 1.0540995-2.3498001 2.3498001-2.3498001 1.2956615 0 2.3498001 1.0541385 2.3498001 2.3498001 0 1.2956615-1.0541386 2.349722-2.3498001 2.349722z" fill="#FFF"/></g></svg>