<svg width="32" height="32" xmlns="http://www.w3.org/2000/svg"><g fill="#FFF" fill-rule="nonzero"><path d="M15.9804481 31.9608961c8.8114053 0 15.980448-7.1690427 15.980448-15.980448C31.9608961 7.16904277 24.7918534 0 15.9804481 0 7.16904277 0 0 7.16904277 0 15.9804481c0 8.8114053 7.16904277 15.980448 15.9804481 15.980448zm0-30.36415476c7.9315682 0 14.3837067 6.4521385 14.3837067 14.38370676 0 7.9315682-6.4521385 14.3837067-14.3837067 14.3837067-7.93156826 0-14.38370676-6.4521385-14.38370676-14.3837067 0-7.93156826 6.4521385-14.38370676 14.38370676-14.38370676z"/><path d="M21.6713981 7.46274537c-.1203287-.1728287-.2823657-.29921759-.4857546-.37939352-.1295324-.05544907-.265287-.08322222-.4071991-.08322222L11.0816944 7c-.1418472 0-.2774722.02777315-.407037.08322222-.2035185.08011111-.3654907.20666204-.4857546.37939352-.1202315.17273148-.1804445.36387037-.1804445.57364352V23.9628009c0 .209838.060213.4009121.1804445.5738056.1202639.1726991.2822361.2992176.4857546.3792963.1294352.0554491.2651898.0831574.407037.0831574.2900139 0 .5458704-.1018241.7679908-.305213l4.0804167-3.9233055 4.0804166 3.9234027c.2159306.1970695.4719167.2957825.7678935.2957825.1542593 0 .2899815-.0245.4071991-.0738565.2033889-.0800787.3654259-.2065973.4857546-.3795232.1202315-.1726666.1803149-.3637731.1803149-.5735787V8.03638889c.0000324-.20977315-.0601806-.40091204-.1802825-.57364352zM16.7536065 19.9192963l-.8235046-.7863333-.8234399.7863333-3.9137777 3.7565046V8.18445833h9.4745324V23.6758009l-3.9138102-3.7565046z"/></g></svg>