<svg width="40" height="40" xmlns="http://www.w3.org/2000/svg"><g fill-rule="nonzero" fill="none"><circle stroke="#FFF" fill="#303644" cx="20" cy="20" r="19.5"/><path d="M25.663 11.463c-.12-.173-.282-.3-.486-.38A1.024 1.024 0 0 0 24.77 11h-9.697c-.142 0-.277.028-.407.083-.203.08-.365.207-.486.38a.982.982 0 0 0-.18.573v15.927c0 .21.06.4.18.574.12.172.283.299.486.379.13.055.265.083.407.083.29 0 .546-.102.768-.305l4.08-3.923 4.081 3.923c.216.197.472.296.768.296.154 0 .29-.025.407-.074.204-.08.366-.207.486-.38a.981.981 0 0 0 .18-.573V12.036c0-.21-.06-.4-.18-.573zm-4.918 12.456l-.823-.786-.824.786-3.914 3.757V12.184h9.475v15.492l-3.914-3.757z" fill="#FFF"/></g></svg>