<svg width="40" height="40" xmlns="http://www.w3.org/2000/svg"><g fill-rule="nonzero" fill="none"><circle stroke="#FFF" fill="#303644" cx="20" cy="20" r="19.5"/><path d="M25.969 23.44a3.275 3.275 0 0 0-2.578 1.255l-6.019-3.475a3.26 3.26 0 0 0 0-2.44l6.02-3.475a3.275 3.275 0 0 0 2.577 1.255 3.283 3.283 0 0 0 3.28-3.28 3.283 3.283 0 0 0-3.28-3.28 3.283 3.283 0 0 0-3.28 3.28c0 .43.084.843.236 1.22l-6.019 3.475a3.275 3.275 0 0 0-2.577-1.255 3.283 3.283 0 0 0-3.28 3.28 3.283 3.283 0 0 0 3.28 3.28 3.275 3.275 0 0 0 2.577-1.255l6.02 3.475c-.153.377-.237.79-.237 1.22a3.283 3.283 0 0 0 3.28 3.28 3.283 3.283 0 0 0 3.28-3.28 3.283 3.283 0 0 0-3.28-3.28zm0-12.51a2.352 2.352 0 0 1 2.35 2.35 2.352 2.352 0 0 1-2.35 2.35 2.352 2.352 0 0 1-2.35-2.35 2.352 2.352 0 0 1 2.35-2.35zm-11.64 11.42a2.352 2.352 0 0 1-2.35-2.35 2.352 2.352 0 0 1 2.35-2.35 2.352 2.352 0 0 1 2.35 2.35 2.352 2.352 0 0 1-2.35 2.35zm11.64 6.72a2.352 2.352 0 0 1-2.35-2.35 2.352 2.352 0 0 1 2.35-2.35 2.352 2.352 0 0 1 2.35 2.35 2.352 2.352 0 0 1-2.35 2.35z" fill="#FFF"/></g></svg>