<?xml version="1.0" encoding="UTF-8"?>
<svg width="30px" height="55px" viewBox="0 0 30 55" version="1.1" xmlns="http://www.w3.org/2000/svg" xmlns:xlink="http://www.w3.org/1999/xlink">
    <!-- Generator: sketchtool 52 (66869) - http://www.bohemiancoding.com/sketch -->
    <title>34D8E4F2-4256-4636-9B24-DA0081D94EBA</title>
    <desc>Created with sketchtool.</desc>
    <g id="Page-1" stroke="none" stroke-width="1" fill="none" fill-rule="evenodd">
        <g id="1.1-Landing" transform="translate(-706.000000, -2651.000000)">
            <g id="block-5" transform="translate(-1.000000, 2321.000000)">
                <g id="logos" transform="translate(192.000000, 323.000000)">
                    <g id="Java_logo" transform="translate(515.000000, 7.000000)">
                        <path d="M28.3223616,43.3246771 L28.1155535,43.3246771 L28.1155535,43.2089945 L28.6722509,43.2089945 L28.6722509,43.3246771 L28.4668635,43.3246771 L28.4668635,43.9018727 L28.3223616,43.9018727 L28.3223616,43.3246771 Z M29.4327122,43.3548155 L29.4294649,43.3548155 L29.2245849,43.9019742 L29.130821,43.9019742 L28.9272601,43.3548155 L28.9247232,43.3548155 L28.9247232,43.9019742 L28.7885424,43.9019742 L28.7885424,43.2090959 L28.9889576,43.2090959 L29.177703,43.6997325 L29.3658395,43.2090959 L29.5655443,43.2090959 L29.5655443,43.9019742 L29.4326107,43.9019742 L29.4326107,43.3548155 L29.4327122,43.3548155 Z" id="Shape" fill="#E76F00" fill-rule="nonzero"></path>
                        <path d="M9.81080258,29.1564945 C9.81080258,29.1564945 8.37207565,29.9931642 10.8346956,30.2762823 C13.8180904,30.6166328 15.342869,30.5678229 18.6305904,29.945572 C18.6305904,29.945572 19.4949631,30.4875554 20.7021218,30.9569834 C13.3319188,34.1157288 4.02190037,30.7740221 9.81080258,29.1564945" id="Path" fill="#5382A1"></path>
                        <path d="M8.91020295,25.0345387 C8.91020295,25.0345387 7.29653137,26.2290129 9.76097786,26.4839207 C12.9479336,26.812703 15.4647417,26.8395941 19.8197878,26.0009963 C19.8197878,26.0009963 20.4221494,26.611679 21.3693266,26.9456365 C12.4583118,29.5513376 2.53304428,27.1511255 8.91020295,25.0345387" id="Path" fill="#5382A1"></path>
                        <path d="M16.5025369,18.0423339 C18.3185517,20.1331458 16.0253967,22.0146125 16.0253967,22.0146125 C16.0253967,22.0146125 20.6365683,19.6341882 18.5188653,16.6533303 C16.5409963,13.8734963 15.0242343,12.4923063 23.235369,7.73013838 C23.235369,7.73013838 10.3465959,10.9491605 16.5025369,18.0423339" id="Path" fill="#E76F00"></path>
                        <path d="M26.2502214,32.2053413 C26.2502214,32.2053413 27.3149077,33.0826015 25.0776661,33.7612731 C20.8234871,35.0500185 7.37131919,35.439179 3.63436347,33.8126199 C2.29102399,33.2282196 4.81016605,32.4172232 5.60259225,32.247048 C6.42901292,32.0678413 6.90128229,32.1012269 6.90128229,32.1012269 C5.4073524,31.0488192 -2.75487085,34.1676845 2.75527675,35.0608764 C17.7822509,37.4978229 30.1480166,33.9635148 26.2502214,32.2053413" id="Path" fill="#5382A1"></path>
                        <path d="M10.5026661,20.7637177 C10.5026661,20.7637177 3.6600369,22.3889576 8.0795203,22.9791421 C9.94556273,23.228976 13.6654705,23.1724539 17.1304705,22.882131 C19.9622601,22.6432565 22.8057196,22.135369 22.8057196,22.135369 C22.8057196,22.135369 21.8071956,22.5629889 21.0847878,23.0562638 C14.1362177,24.8837454 0.712869004,24.0335793 4.5772786,22.1642897 C7.84541513,20.5845111 10.5026661,20.7637177 10.5026661,20.7637177" id="Path" fill="#5382A1"></path>
                        <path d="M22.7775092,27.624917 C29.8410517,23.954428 26.5751476,20.4271218 24.2955904,20.9023339 C23.7368635,21.0186255 23.4877399,21.1193911 23.4877399,21.1193911 C23.4877399,21.1193911 23.6951568,20.7944649 24.0913192,20.6538192 C28.6010148,19.0683579 32.069262,25.3299354 22.6355443,27.8099078 C22.6355443,27.8100092 22.7448339,27.7122878 22.7775092,27.624917" id="Path" fill="#5382A1"></path>
                        <path d="M18.5188653,0.0404889299 C18.5188653,0.0404889299 22.4307657,3.95370849 14.8085978,9.97113469 C8.69639299,14.7981458 13.4148247,17.5503782 14.8060609,20.694917 C11.2382657,17.4758948 8.61998155,14.6421771 10.3765314,12.0048155 C12.9547325,8.13340406 20.0972232,6.25640221 18.5188653,0.0404889299" id="Path" fill="#E76F00"></path>
                        <path d="M11.196762,37.5710886 C17.9768819,38.0051015 28.388524,37.330286 28.6351107,34.1221218 C28.6351107,34.1221218 28.1611162,35.3383118 23.0317066,36.3041605 C17.2447325,37.3932011 10.1073155,37.2660517 5.87404059,36.5680996 C5.87414207,36.5679982 6.74064576,37.2853321 11.196762,37.5710886" id="Path" fill="#5382A1"></path>
                        <path d="M10.0855996,49.8295941 C9.44599631,50.3843635 8.77047048,50.6957934 8.16425277,50.6957934 C7.29896679,50.6957934 6.83146679,50.1769465 6.83146679,49.3447417 C6.83146679,48.444548 7.3323524,47.7863745 9.34188192,47.7863745 L10.0854982,47.7863745 L10.0854982,49.8295941 L10.0855996,49.8295941 Z M11.8504705,51.8208579 L11.8504705,45.6570018 C11.8504705,44.0823985 10.9524077,43.0433856 8.78711255,43.0433856 C7.52302583,43.0433856 6.41571956,43.3555258 5.51572878,43.7536162 L5.77550738,44.8446863 C6.48411439,44.5846033 7.40135609,44.3424815 8.30165129,44.3424815 C9.54899446,44.3424815 10.0855996,44.8446863 10.0855996,45.8829889 L10.0855996,46.6620203 L9.46304428,46.6620203 C6.4324631,46.6620203 5.06537823,47.8384317 5.06537823,49.6042159 C5.06537823,51.1280812 5.96628229,51.9942804 7.66255535,51.9942804 C8.75291513,51.9942804 9.56685424,51.5441328 10.3277214,50.8853506 L10.4658303,51.8209594 L11.8504705,51.8209594 L11.8504705,51.8208579 Z" id="Shape" fill="#E76F00" fill-rule="nonzero"></path>
                        <path d="M17.7405443,51.8208579 L15.5393266,51.8208579 L12.8901937,43.1994557 L14.8124539,43.1994557 L16.4562638,48.4965037 L16.821679,50.0895756 C17.6532749,47.7862731 18.2414299,45.4494834 18.5356089,43.1994557 L20.4055074,43.1994557 C19.9045203,46.0384502 19.0030074,49.1545756 17.7405443,51.8208579" id="Path" fill="#E76F00"></path>
                        <path d="M26.1846679,49.8295941 C25.5438469,50.3843635 24.8671033,50.6957934 24.2608856,50.6957934 C23.3971218,50.6957934 22.9284041,50.1769465 22.9284041,49.3447417 C22.9284041,48.444548 23.4305074,47.7863745 25.4398339,47.7863745 L26.1846679,47.7863745 L26.1846679,49.8295941 Z M27.9493358,51.8208579 L27.9493358,45.6570018 C27.9493358,44.0823985 27.0490406,43.0433856 24.8862823,43.0433856 C23.6212823,43.0433856 22.5135701,43.3555258 21.6139852,43.7536162 L21.8733579,44.8446863 C22.5822694,44.5846033 23.5012362,44.3424815 24.400821,44.3424815 C25.6472509,44.3424815 26.1846679,44.8446863 26.1846679,45.8829889 L26.1846679,46.6620203 L25.5610978,46.6620203 C22.5296033,46.6620203 21.1631273,47.8384317 21.1631273,49.6042159 C21.1631273,51.1280812 22.063321,51.9942804 23.7592897,51.9942804 C24.8502583,51.9942804 25.663893,51.5441328 26.4260793,50.8853506 L26.5646956,51.8209594 L27.9493358,51.8209594 L27.9493358,51.8208579 Z" id="Shape" fill="#E76F00" fill-rule="nonzero"></path>
                        <path d="M3.13023063,53.2849539 C2.62711255,54.0195387 1.81449262,54.6006919 0.924852399,54.9294742 L0.0534778598,53.904059 C0.730627306,53.5566052 1.31137454,52.9954428 1.58119926,52.4727399 C1.8145941,52.0078782 1.91119926,51.4087638 1.91119926,49.976024 L1.91119926,40.1333579 L3.78627306,40.1333579 L3.78627306,49.8411624 C3.78617159,51.7566236 3.63304428,52.5303782 3.13023063,53.2849539" id="Path" fill="#E76F00"></path>
                    </g>
                </g>
            </g>
        </g>
    </g>
</svg>